<mxfile host="app.diagrams.net" agent="Mozilla/5.0 (Windows NT 10.0; Win64; x64) AppleWebKit/537.36 (KHTML, like Gecko) Chrome/141.0.0.0 Safari/537.36" version="28.2.8">
  <diagram name="Page-1" id="0h23OUbqIbt9me7i8CGn">
    <mxGraphModel dx="1042" dy="570" grid="1" gridSize="10" guides="1" tooltips="1" connect="1" arrows="1" fold="1" page="1" pageScale="1" pageWidth="850" pageHeight="1100" math="0" shadow="0">
      <root>
        <mxCell id="0" />
        <mxCell id="1" parent="0" />
        <mxCell id="QbtZSBSQzzSBaMFccxSM-2" value="start" style="ellipse;whiteSpace=wrap;html=1;" vertex="1" parent="1">
          <mxGeometry x="340" y="40" width="150" height="100" as="geometry" />
        </mxCell>
        <mxCell id="QbtZSBSQzzSBaMFccxSM-3" value="" style="html=1;shadow=0;dashed=0;align=center;verticalAlign=middle;shape=mxgraph.arrows2.arrow;dy=0.6;dx=40;direction=south;notch=0;" vertex="1" parent="1">
          <mxGeometry x="375" y="140" width="70" height="100" as="geometry" />
        </mxCell>
        <mxCell id="QbtZSBSQzzSBaMFccxSM-4" value="input number" style="shape=parallelogram;perimeter=parallelogramPerimeter;whiteSpace=wrap;html=1;fixedSize=1;" vertex="1" parent="1">
          <mxGeometry x="330" y="240" width="160" height="60" as="geometry" />
        </mxCell>
        <mxCell id="QbtZSBSQzzSBaMFccxSM-12" value="" style="html=1;shadow=0;dashed=0;align=center;verticalAlign=middle;shape=mxgraph.arrows2.bendArrow;dy=15;dx=38;notch=0;arrowHead=55;rounded=0;strokeColor=default;fontFamily=Helvetica;fontSize=12;fontColor=default;resizable=1;fillColor=default;direction=south;flipH=1;flipV=0;" vertex="1" parent="1">
          <mxGeometry x="190" y="440" width="130" height="130" as="geometry" />
        </mxCell>
        <mxCell id="QbtZSBSQzzSBaMFccxSM-5" value="" style="html=1;shadow=0;dashed=0;align=center;verticalAlign=middle;shape=mxgraph.arrows2.arrow;dy=0.6;dx=40;direction=south;notch=0;" vertex="1" parent="1">
          <mxGeometry x="375" y="300" width="70" height="100" as="geometry" />
        </mxCell>
        <mxCell id="QbtZSBSQzzSBaMFccxSM-6" value="if number %2 == 0" style="rhombus;whiteSpace=wrap;html=1;" vertex="1" parent="1">
          <mxGeometry x="320" y="400" width="190" height="110" as="geometry" />
        </mxCell>
        <mxCell id="QbtZSBSQzzSBaMFccxSM-7" value="" style="html=1;shadow=0;dashed=0;align=center;verticalAlign=middle;shape=mxgraph.arrows2.bendArrow;dy=15;dx=38;notch=0;arrowHead=55;rounded=0;direction=south;" vertex="1" parent="1">
          <mxGeometry x="510" y="440" width="130" height="120" as="geometry" />
        </mxCell>
        <mxCell id="QbtZSBSQzzSBaMFccxSM-13" value="display&amp;nbsp;&lt;div&gt;&amp;nbsp;&quot;even number&lt;/div&gt;" style="shape=parallelogram;perimeter=parallelogramPerimeter;whiteSpace=wrap;html=1;fixedSize=1;rounded=0;shadow=0;dashed=0;strokeColor=default;align=center;verticalAlign=middle;fontFamily=Helvetica;fontSize=12;fontColor=default;resizable=1;fillColor=default;" vertex="1" parent="1">
          <mxGeometry x="150" y="570" width="180" height="110" as="geometry" />
        </mxCell>
        <mxCell id="QbtZSBSQzzSBaMFccxSM-14" value="display&lt;div&gt;&quot; odd number &quot;&amp;nbsp;&lt;/div&gt;" style="shape=parallelogram;perimeter=parallelogramPerimeter;whiteSpace=wrap;html=1;fixedSize=1;rounded=0;shadow=0;dashed=0;strokeColor=default;align=center;verticalAlign=middle;fontFamily=Helvetica;fontSize=12;fontColor=default;resizable=1;fillColor=default;" vertex="1" parent="1">
          <mxGeometry x="520" y="560" width="180" height="110" as="geometry" />
        </mxCell>
        <mxCell id="QbtZSBSQzzSBaMFccxSM-20" value="end" style="ellipse;whiteSpace=wrap;html=1;rounded=0;shadow=0;dashed=0;strokeColor=default;align=center;verticalAlign=middle;fontFamily=Helvetica;fontSize=12;fontColor=default;resizable=1;fillColor=default;" vertex="1" parent="1">
          <mxGeometry x="340" y="730" width="210" height="120" as="geometry" />
        </mxCell>
        <mxCell id="QbtZSBSQzzSBaMFccxSM-24" value="" style="html=1;shadow=0;dashed=0;align=center;verticalAlign=middle;shape=mxgraph.arrows2.uTurnArrow;dy=11;arrowHead=43;dx2=25;rounded=0;strokeColor=default;fontFamily=Helvetica;fontSize=12;fontColor=default;resizable=1;fillColor=default;flipV=1;" vertex="1" parent="1">
          <mxGeometry x="140" y="680" width="190" height="120" as="geometry" />
        </mxCell>
        <mxCell id="QbtZSBSQzzSBaMFccxSM-25" value="" style="html=1;shadow=0;dashed=0;align=center;verticalAlign=middle;shape=mxgraph.arrows2.uTurnArrow;dy=11;arrowHead=43;dx2=25;rounded=0;strokeColor=default;fontFamily=Helvetica;fontSize=12;fontColor=default;resizable=1;fillColor=default;flipV=1;flipH=1;" vertex="1" parent="1">
          <mxGeometry x="320" y="680" width="390" height="120" as="geometry" />
        </mxCell>
      </root>
    </mxGraphModel>
  </diagram>
</mxfile>
